<?xml version="1.0" encoding="UTF-8"?>
<svg xmlns="http://www.w3.org/2000/svg" xmlns:xlink="http://www.w3.org/1999/xlink" width="21pt" height="23pt" viewBox="0 0 21 23" version="1.1">
<g id="surface1">
<path style=" stroke:none;fill-rule:nonzero;fill:rgb(0%,0%,0%);fill-opacity:1;" d="M 3.34375 1.246094 L 3.34375 2.496094 L 2.640625 2.503906 C 1.894531 2.515625 1.710938 2.53125 1.332031 2.628906 C 1.226562 2.65625 1.042969 2.726562 0.925781 2.78125 C 0.742188 2.867188 0.683594 2.90625 0.53125 3.058594 C 0.386719 3.199219 0.339844 3.261719 0.261719 3.417969 C 0.148438 3.640625 0.0742188 3.882812 0.03125 4.179688 C 0.00390625 4.367188 0 5.371094 0 12.902344 C 0 21.253906 0 21.414062 0.0390625 21.636719 C 0.117188 22.0625 0.21875 22.292969 0.4375 22.503906 C 0.609375 22.671875 0.808594 22.769531 1.09375 22.84375 C 1.523438 22.949219 1.039062 22.941406 10.46875 22.941406 C 18.84375 22.941406 19.257812 22.941406 19.464844 22.90625 C 19.972656 22.820312 20.28125 22.695312 20.515625 22.464844 C 20.757812 22.234375 20.875 21.953125 20.953125 21.421875 C 20.988281 21.199219 20.988281 20.640625 20.988281 12.816406 C 20.988281 4.894531 20.988281 4.433594 20.953125 4.164062 C 20.875 3.566406 20.75 3.253906 20.488281 2.996094 C 20.304688 2.816406 20.09375 2.710938 19.78125 2.632812 C 19.40625 2.539062 19.15625 2.515625 18.359375 2.503906 L 17.617188 2.492188 L 17.617188 0 L 15.054688 0 L 15.054688 2.5 L 5.90625 2.5 L 5.90625 0 L 3.34375 0 Z M 18.648438 8.160156 C 18.753906 8.1875 18.859375 8.296875 18.902344 8.421875 C 18.9375 8.519531 18.9375 8.8125 18.945312 14.253906 C 18.949219 17.9375 18.941406 20.042969 18.929688 20.148438 C 18.902344 20.351562 18.851562 20.453125 18.75 20.503906 C 18.675781 20.542969 18.464844 20.542969 10.582031 20.550781 C 4.960938 20.554688 2.460938 20.546875 2.390625 20.53125 C 2.171875 20.488281 2.074219 20.371094 2.03125 20.097656 C 2 19.898438 2 8.5625 2.03125 8.417969 C 2.058594 8.296875 2.113281 8.222656 2.222656 8.175781 C 2.304688 8.140625 2.566406 8.136719 10.4375 8.136719 C 16.039062 8.136719 18.59375 8.144531 18.648438 8.160156 Z M 18.648438 8.160156 "/>
<path style=" stroke:none;fill-rule:nonzero;fill:rgb(0%,0%,0%);fill-opacity:1;" d="M 4.71875 13.425781 L 4.71875 16.394531 L 10.375 16.394531 L 10.375 10.457031 L 4.71875 10.457031 Z M 4.71875 13.425781 "/>
</g>
</svg>
